<?xml version="1.0" encoding="utf-8"?>
<!-- Generator: Adobe Illustrator 23.0.2, SVG Export Plug-In . SVG Version: 6.00 Build 0)  -->
<svg version="1.1" xmlns="http://www.w3.org/2000/svg" xmlns:xlink="http://www.w3.org/1999/xlink" x="0px" y="0px"
	 viewBox="0 0 6000 4000" style="enable-background:new 0 0 6000 4000;" xml:space="preserve">
<style type="text/css">
	.st0{fill:none;}
	.st1{fill:url(#SVGID_1_);}
</style>
<g id="Camada_2">
</g>
<g id="Camada_5">
</g>
<g id="Camada_1">
	<g>
		<polygon class="st0" points="2761.37,1666.69 2761.37,2219.11 2761.37,2518.73 2761.37,3435.39 3221.12,3435.39 3221.12,2518.73 
			3221.12,2219.11 3221.12,1666.69 2991.24,1288.45 		"/>
		<rect x="1552.11" y="2518.73" class="st0" width="909.64" height="916.66"/>
		<polygon class="st0" points="2461.75,1582.18 2815.76,999.7 2551.43,564.78 1552.11,564.78 1552.11,2219.11 2461.75,2219.11 		"/>
		<rect x="3520.74" y="2518.73" class="st0" width="909.08" height="916.66"/>
		<polygon class="st0" points="3166.73,999.7 3520.74,1582.18 3520.74,2219.11 4429.82,2219.11 4429.82,564.78 3431.06,564.78 		"/>
		<g>
			<linearGradient id="SVGID_1_" gradientUnits="userSpaceOnUse" x1="1898.2069" y1="957.454" x2="4342.1929" y2="3473.2971">
				<stop  offset="0" style="stop-color:#43CEA2"/>
				<stop  offset="0.2057" style="stop-color:#3AB6A1"/>
				<stop  offset="1" style="stop-color:#185A9D"/>
			</linearGradient>
			<path class="st1" d="M4439.82,265.15c-5.5,0-14.5,0.01-20,0.01H3272.54c-5.5,0-10,0.01-10,0.02c0,0.01-0.06-0.02-0.14-0.07
				s-2.48,3.76-5.33,8.46l-260.62,428.83c-2.86,4.7-7.53,4.7-10.39,0l-260.64-428.86c-2.86-4.7-9.69-8.54-15.19-8.54l-1079.47,0.15
				c-5.5,0-14.5,0-20,0c0,0-30.83-0.01-58.63-0.02C1252.5,265,1252.5,554.78,1252.5,554.78c0,5.5,0,14.5,0,20v1634.34
				c0,5.5,0,14.5,0,20v279.61c0,5.5,0,14.5,0,20v1196.23c0,5.5,0.68,10,1.51,10s1.51,0.01,1.51,0.02s4.5,0.02,10,0.02h1485.86
				c5.5,0,10-4.5,10-10v-279.61c0-5.5,0-14.5,0-20v-84.61c0-5.5,0-14.5,0-20v-792.05c0-5.5,0-14.5,0-20v-279.61c0-5.5,0-14.5,0-20
				v-532.42c0-5.5,2.34-13.85,5.19-18.55l219.49-361.15c2.86-4.7,7.53-4.7,10.39,0l219.49,361.15c2.86,4.7,5.19,13.05,5.19,18.55
				v532.42c0,5.5,0,14.5,0,20v279.61c0,5.5,0,14.5,0,20v792.05c0,5.5,0,14.5,0,20v84.61c0,5.5,0,14.5,0,20V3725c0,5.5,4.5,10,10,10
				h1188.7c5.5,0,14.5,0,20,0h275.53c5.5,0,10.92,0,12.04,0s2.04-4.5,2.04-10c0,0,0-2860.45,0-3160.22
				S4439.82,265.15,4439.82,265.15z M2461.75,3425.39c0,5.5-4.5,10-10,10h-889.64c-5.5,0-10-4.5-10-10v-896.66c0-5.5,4.5-10,10-10
				h889.64c5.5,0,10,4.5,10,10V3425.39z M2466.94,1573.64c-2.86,4.7-5.19,13.05-5.19,18.55v616.93c0,5.5-4.5,10-10,10h-889.64
				c-5.5,0-10-4.5-10-10V574.78c0-5.5,4.5-10,10-10h979.32c5.5,0,12.34,3.85,15.19,8.55l253.94,417.83c2.86,4.7,2.86,12.39,0,17.09
				L2466.94,1573.64z M4429.82,3425.39c0,5.5-4.5,10-10,10h-889.08c-5.5,0-10-4.5-10-10v-896.66c0-5.5,4.5-10,10-10h889.08
				c5.5,0,10,4.5,10,10V3425.39z M4429.82,2209.11c0,5.5-4.5,10-10,10h-889.08c-5.5,0-10-4.5-10-10v-616.93
				c0-5.5-2.34-13.85-5.19-18.55l-343.62-565.39c-2.86-4.7-2.86-12.39,0-17.09l253.94-417.83c2.86-4.7,9.69-8.55,15.19-8.55h978.76
				c5.5,0,10,4.5,10,10V2209.11z"/>
		</g>
	</g>
	<polygon class="st0" points="1588,2628 1594,2628 1594,2628 1588,2628 	"/>
</g>
<g id="Camada_3">
</g>
<g id="Camada_4">
</g>
</svg>
